<?xml version="1.0" encoding="UTF-8" standalone="no"?>
<!-- Created with Inkscape (http://www.inkscape.org/) -->

<svg
   xmlns:dc="http://purl.org/dc/elements/1.1/"
   xmlns:cc="http://creativecommons.org/ns#"
   xmlns:rdf="http://www.w3.org/1999/02/22-rdf-syntax-ns#"
   xmlns:svg="http://www.w3.org/2000/svg"
   xmlns="http://www.w3.org/2000/svg"
   xmlns:sodipodi="http://sodipodi.sourceforge.net/DTD/sodipodi-0.dtd"
   xmlns:inkscape="http://www.inkscape.org/namespaces/inkscape"
   viewBox="0 0 200 24"
   preserveAspectRatio="xMidYMin slice"
   id="svg3010"
   version="1.1"
   inkscape:version="0.48.3.1 r9886"
   sodipodi:docname="buttons.svg"
   width="100%"
   height="100%">
  <defs
     id="defs3012" />
  <sodipodi:namedview
     id="base"
     pagecolor="#ffffff"
     bordercolor="#666666"
     borderopacity="1.0"
     inkscape:pageopacity="0.0"
     inkscape:pageshadow="2"
     inkscape:zoom="6.68"
     inkscape:cx="92.568855"
     inkscape:cy="12"
     inkscape:document-units="px"
     inkscape:current-layer="layer1"
     showgrid="false"
     inkscape:window-width="1855"
     inkscape:window-height="1072"
     inkscape:window-x="65"
     inkscape:window-y="24"
     inkscape:window-maximized="1" />
  <metadata
     id="metadata3015">
    <rdf:RDF>
      <cc:Work
         rdf:about="">
        <dc:format>image/svg+xml</dc:format>
        <dc:type
           rdf:resource="http://purl.org/dc/dcmitype/StillImage" />
        <dc:title></dc:title>
      </cc:Work>
    </rdf:RDF>
  </metadata>
  <g
     inkscape:label="Layer 1"
     inkscape:groupmode="layer"
     id="layer1"
     transform="matrix(0.99985955,0,0,1,-7.0976109e-5,-1028.3622)">
    <rect
       style="fill:#000000;stroke-width:0;stroke-miterlimit:4;stroke-dasharray:none"
       id="rect3794"
       width="200.02809"
       height="2"
       x="7.0986076e-05"
       y="1028.3622" />
    <rect
       style="fill:#000000;stroke-width:0;stroke-miterlimit:4;stroke-dasharray:none"
       id="rect3796"
       width="1"
       height="12"
       x="63.508991"
       y="1035.3622"
       rx="0.5"
       ry="0.5" />
    <rect
       style="fill:#000000;stroke-width:0;stroke-miterlimit:4;stroke-dasharray:none"
       id="rect3796-1"
       width="1"
       height="12"
       x="127.51798"
       y="1035.3622"
       rx="0.5"
       ry="0.5" />
    <rect
       style="fill:#000000;stroke-width:0;stroke-miterlimit:4;stroke-dasharray:none"
       id="rect3796-1-1"
       width="1"
       height="12"
       x="163.52304"
       y="1035.3622"
       rx="0.5"
       ry="0.5" />
    <path
       d="m 154.06395,1036.713 c -0.41602,-1.0431 -1.25072,-1.9203 -2.40567,-2.4636 -1.02077,-0.4803 -2.12064,-0.5381 -3.12039,-0.2446 -0.99942,0.2935 -1.89821,1.0934 -2.51731,2.018 -0.61894,-0.9246 -1.51773,-1.7245 -2.51714,-2.018 -0.99941,-0.2935 -2.09962,-0.2357 -3.1204,0.2446 -1.15477,0.5431 -1.98948,1.4205 -2.40567,2.4636 -0.41602,1.0432 -0.41785,2.2544 0.10647,3.4589 1.12173,2.5765 7.90119,8.6235 7.93674,8.7268 0.0355,-0.1033 6.81517,-6.1503 7.93674,-8.7268 0.52466,-1.2047 0.52265,-2.4157 0.10663,-3.4589 z"
       id="path6"
       inkscape:connector-curvature="0"
       style="fill:none;stroke:#000000;stroke-width:0.92702395000000004;stroke-linejoin:miter;stroke-opacity:1;overflow:visible;fill-opacity:0;fill-rule:nonzero" />
    <text
       xml:space="preserve"
       style="font-size:17.27480316px;font-style:normal;font-weight:normal;line-height:125%;letter-spacing:0px;word-spacing:0px;fill:#000000;fill-opacity:1;stroke:none;font-family:Sans"
       x="15.876811"
       y="1046.8184"
       id="text3852"
       sodipodi:linespacing="125%"
       transform="scale(1.0000702,0.9999298)"><tspan
         sodipodi:role="line"
         id="tspan3854"
         x="15.876811"
         y="1046.8184"
         style="font-size:16.00112343px;font-style:normal;font-variant:normal;font-weight:normal;font-stretch:normal;font-family:Arial;-inkscape-font-specification:Arial">Play</tspan></text>
    <text
       xml:space="preserve"
       style="font-size:20.40492058px;font-style:normal;font-variant:normal;font-weight:normal;font-stretch:normal;line-height:125%;letter-spacing:0px;word-spacing:0px;fill:#000000;fill-opacity:1;stroke:none;font-family:Arial;-inkscape-font-specification:Arial"
       x="71.96563"
       y="1046.8184"
       id="text2989"
       sodipodi:linespacing="125%"
       transform="scale(1.0000702,0.9999298)"><tspan
         sodipodi:role="line"
         id="tspan2991"
         x="71.96563"
         y="1046.8184"
         style="font-size:16.00112343px">Queue</tspan></text>
    <path
       style="fill:#000000;stroke-width:0;stroke-miterlimit:4;stroke-dasharray:none"
       d="m 182.02563,1033.3622 c -4.4189,0 -8.00112,3.5817 -8.00112,8 0,4.4183 3.58222,8 8.00112,8 4.4189,0 8.00112,-3.5817 8.00112,-8 0,-4.4183 -3.58222,-8 -8.00112,-8 z m -0.71885,2.2812 1.40645,0 0,1.625 -1.40645,0 0,-1.625 z m 0,3.1563 1.40645,0 0,8.3125 -1.40645,0 0,-8.3125 z"
       id="path2997"
       inkscape:connector-curvature="0" />
  </g>
</svg>
