<?xml version="1.0" encoding="UTF-8" standalone="no"?>
<svg
   xmlns:dc="http://purl.org/dc/elements/1.1/"
   xmlns:cc="http://creativecommons.org/ns#"
   xmlns:rdf="http://www.w3.org/1999/02/22-rdf-syntax-ns#"
   xmlns:svg="http://www.w3.org/2000/svg"
   xmlns="http://www.w3.org/2000/svg"
   xmlns:sodipodi="http://sodipodi.sourceforge.net/DTD/sodipodi-0.dtd"
   xmlns:inkscape="http://www.inkscape.org/namespaces/inkscape"
   version="1.1"
   x="0px"
   y="0px"
   width="48"
   height="48"
   viewBox="0 -4.831 48 48"
   overflow="visible"
   enable-background="new 0 -4.831 100 100"
   xml:space="preserve"
   id="svg2"
   inkscape:version="0.48.3.1 r9886"
   sodipodi:docname="heart.svg"
   style="overflow:visible"><metadata
   id="metadata10"><rdf:RDF><cc:Work
       rdf:about=""><dc:format>image/svg+xml</dc:format><dc:type
         rdf:resource="http://purl.org/dc/dcmitype/StillImage" /></cc:Work></rdf:RDF></metadata><sodipodi:namedview
   pagecolor="#ffffff"
   bordercolor="#666666"
   borderopacity="1"
   objecttolerance="10"
   gridtolerance="10"
   guidetolerance="10"
   inkscape:pageopacity="0"
   inkscape:pageshadow="2"
   inkscape:window-width="1600"
   inkscape:window-height="848"
   id="namedview8"
   showgrid="false"
   inkscape:zoom="6.675088"
   inkscape:cx="28.050221"
   inkscape:cy="13.728577"
   inkscape:window-x="-8"
   inkscape:window-y="-8"
   inkscape:window-maximized="1"
   inkscape:current-layer="svg2" />
<defs
   id="defs4">
</defs>
<path
   d="m 32.219212,14.417485 c -0.42512,-1.066124 -1.278087,-1.962745 -2.458292,-2.517976 -1.043104,-0.490943 -2.167036,-0.549944 -3.188653,-0.24999 -1.021275,0.299954 -1.939725,1.117452 -2.572373,2.062503 -0.632478,-0.945051 -1.550927,-1.762549 -2.572204,-2.062503 -1.021275,-0.299954 -2.145549,-0.240953 -3.188652,0.24999 -1.180035,0.55506 -2.033002,1.451852 -2.458293,2.517976 -0.425119,1.066124 -0.426995,2.303967 0.108796,3.534989 1.14627,2.633251 8.074031,8.813429 8.110353,8.918984 0.03632,-0.105555 6.964252,-6.285733 8.110352,-8.918984 0.536132,-1.231193 0.534085,-2.468865 0.108966,-3.534989 z"
   id="path6"
   inkscape:connector-curvature="0"
   style="fill:#ffffff;stroke:#000000;stroke-width:0.94736844;stroke-linejoin:miter;stroke-opacity:1" />
</svg>