<?xml version="1.0" encoding="UTF-8" standalone="no"?>
<svg
   xmlns:dc="http://purl.org/dc/elements/1.1/"
   xmlns:cc="http://creativecommons.org/ns#"
   xmlns:rdf="http://www.w3.org/1999/02/22-rdf-syntax-ns#"
   xmlns:svg="http://www.w3.org/2000/svg"
   xmlns="http://www.w3.org/2000/svg"
   xmlns:sodipodi="http://sodipodi.sourceforge.net/DTD/sodipodi-0.dtd"
   xmlns:inkscape="http://www.inkscape.org/namespaces/inkscape"
   width="144"
   height="48"
   id="svg2"
   version="1.1"
   inkscape:version="0.48.3.1 r9886"
   sodipodi:docname="heart.svg">
  <metadata
     id="metadata10">
    <rdf:RDF>
      <cc:Work
         rdf:about="">
        <dc:format>image/svg+xml</dc:format>
        <dc:type
           rdf:resource="http://purl.org/dc/dcmitype/StillImage" />
      </cc:Work>
    </rdf:RDF>
  </metadata>
  <sodipodi:namedview
     pagecolor="#ffffff"
     bordercolor="#666666"
     borderopacity="1"
     objecttolerance="10"
     gridtolerance="10"
     guidetolerance="10"
     inkscape:pageopacity="0"
     inkscape:pageshadow="2"
     inkscape:window-width="1600"
     inkscape:window-height="848"
     id="base"
     showgrid="false"
     inkscape:zoom="6.675088"
     inkscape:cx="49.168805"
     inkscape:cy="11.765445"
     inkscape:window-x="-8"
     inkscape:window-y="-8"
     inkscape:window-maximized="1"
     inkscape:current-layer="svg2" />
  <defs
     id="defs4" />
  <path
     d="m 32.219212,19.248485 c -0.42512,-1.066124 -1.278087,-1.962745 -2.458292,-2.517976 -1.043104,-0.490943 -2.167036,-0.549944 -3.188653,-0.24999 -1.021275,0.299954 -1.939725,1.117452 -2.572373,2.062503 -0.632478,-0.945051 -1.550927,-1.762549 -2.572204,-2.062503 -1.021275,-0.299954 -2.145549,-0.240953 -3.188652,0.24999 -1.180035,0.55506 -2.033002,1.451852 -2.458293,2.517976 -0.425119,1.066124 -0.426995,2.303967 0.108796,3.534989 1.14627,2.633251 8.074031,8.813429 8.110353,8.918984 0.03632,-0.105555 6.964252,-6.285733 8.110352,-8.918984 0.536132,-1.231193 0.534085,-2.468865 0.108966,-3.534989 z"
     id="path6"
     inkscape:connector-curvature="0"
     style="fill:#ffffff;stroke:#000000;stroke-width:0.94736844;stroke-linejoin:miter;stroke-opacity:1" />
  <path
     style="fill:#ff6d6d;fill-opacity:1;stroke:#000000;stroke-width:0.94736844;stroke-linejoin:miter;stroke-opacity:1"
     inkscape:connector-curvature="0"
     id="path5398"
     d="m 80.219212,19.248485 c -0.42512,-1.066124 -1.278087,-1.962745 -2.458292,-2.517976 -1.043104,-0.490943 -2.167036,-0.549944 -3.188653,-0.24999 -1.021275,0.299954 -1.939725,1.117452 -2.572373,2.062503 -0.632478,-0.945051 -1.550927,-1.762549 -2.572204,-2.062503 -1.021275,-0.299954 -2.145549,-0.240953 -3.188652,0.24999 -1.180035,0.55506 -2.033002,1.451852 -2.458293,2.517976 -0.425119,1.066124 -0.426995,2.303967 0.108796,3.534989 1.14627,2.633251 8.074031,8.813429 8.110353,8.918984 0.03632,-0.105555 6.964252,-6.285733 8.110352,-8.918984 0.536132,-1.231193 0.534085,-2.468865 0.108966,-3.534989 z" />
  <path
     d="m 128.21921,19.248485 c -0.42512,-1.066124 -1.27808,-1.962745 -2.45829,-2.517976 -1.0431,-0.490943 -2.16704,-0.549944 -3.18865,-0.24999 -1.02128,0.299954 -1.93973,1.117452 -2.57238,2.062503 -0.63247,-0.945051 -1.55092,-1.762549 -2.5722,-2.062503 -1.02127,-0.299954 -2.14555,-0.240953 -3.18865,0.24999 -1.18004,0.55506 -2.033,1.451852 -2.45829,2.517976 -0.42512,1.066124 -0.427,2.303967 0.10879,3.534989 1.14627,2.633251 8.07403,8.813429 8.11035,8.918984 0.0363,-0.105555 6.96426,-6.285733 8.11036,-8.918984 0.53613,-1.231193 0.53408,-2.468865 0.10896,-3.534989 z"
     id="path5400"
     inkscape:connector-curvature="0"
     style="fill:#fb2222;fill-opacity:1;stroke:#000000;stroke-width:0.94736844;stroke-linejoin:miter;stroke-opacity:1" />
</svg>
