<?xml version="1.0" encoding="UTF-8" standalone="no"?>
<svg
   xmlns:dc="http://purl.org/dc/elements/1.1/"
   xmlns:cc="http://creativecommons.org/ns#"
   xmlns:rdf="http://www.w3.org/1999/02/22-rdf-syntax-ns#"
   xmlns:svg="http://www.w3.org/2000/svg"
   xmlns="http://www.w3.org/2000/svg"
   xmlns:sodipodi="http://sodipodi.sourceforge.net/DTD/sodipodi-0.dtd"
   xmlns:inkscape="http://www.inkscape.org/namespaces/inkscape"
   version="1.1"
   id="Your_Icon"
   x="0px"
   y="0px"
   width="48"
   height="48"
   viewBox="0 0 48 48"
   enable-background="new 0 0 100 100"
   xml:space="preserve"
   inkscape:version="0.48.3.1 r9886"
   sodipodi:docname="no-album.svg"><metadata
   id="metadata15"><rdf:RDF><cc:Work
       rdf:about=""><dc:format>image/svg+xml</dc:format><dc:type
         rdf:resource="http://purl.org/dc/dcmitype/StillImage" /></cc:Work></rdf:RDF></metadata><defs
   id="defs13" /><sodipodi:namedview
   pagecolor="#ffffff"
   bordercolor="#666666"
   borderopacity="1"
   objecttolerance="10"
   gridtolerance="10"
   guidetolerance="10"
   inkscape:pageopacity="0"
   inkscape:pageshadow="2"
   inkscape:window-width="1600"
   inkscape:window-height="848"
   id="namedview11"
   showgrid="false"
   inkscape:zoom="2.36"
   inkscape:cx="-20.338983"
   inkscape:cy="50"
   inkscape:window-x="1016"
   inkscape:window-y="-8"
   inkscape:window-maximized="1"
   inkscape:current-layer="Your_Icon" />



<path
   d="m 24,6.72 c 9.52848,0 17.28,7.75152 17.28,17.28 0,9.52848 -7.75152,17.28 -17.28,17.28 C 14.47152,41.28 6.72,33.52848 6.72,24 6.72,14.47152 14.47152,6.72 24,6.72 M 24,4.8 C 13.39584,4.8 4.8,13.39632 4.8,24 4.8,34.60416 13.39584,43.2 24,43.2 34.60416,43.2 43.2,34.60416 43.2,24 43.2,13.39632 34.60416,4.8 24,4.8 l 0,0 z"
   id="path3"
   style="fill:#ffffff;stroke:none;stroke-width:0.47999999999999998;stroke-miterlimit:4;stroke-dasharray:none"
   inkscape:connector-curvature="0" /><path
   d="m 24,21.12 c 1.58832,0 2.88,1.29168 2.88,2.88 0,1.58832 -1.29168,2.88 -2.88,2.88 -1.58832,0 -2.88,-1.29168 -2.88,-2.88 0,-1.58832 1.29168,-2.88 2.88,-2.88 m 0,-1.92 c -2.65104,0 -4.8,2.14896 -4.8,4.8 0,2.65056 2.14896,4.8 4.8,4.8 2.65056,0 4.8,-2.14944 4.8,-4.8 0,-2.65104 -2.14944,-4.8 -4.8,-4.8 l 0,0 z"
   id="path5"
   style="fill:#ffffff;stroke:none;stroke-width:0.47999999999999998;stroke-miterlimit:4;stroke-dasharray:none"
   inkscape:connector-curvature="0" /><path
   d="M 34.8624,13.1376 28.752,19.248 c 1.2144,1.2192 1.968,2.8992 1.968,4.752 h 8.64 c 0,-4.2432 -1.7184,-8.0832 -4.4976,-10.8624 z"
   id="path7"
   style="fill:#ffffff;stroke:none;stroke-width:0.47999999999999998;stroke-miterlimit:4;stroke-dasharray:none"
   inkscape:connector-curvature="0" /><path
   d="m 30.8688,10.2576 -3.864,7.7328 c 0.36,0.1824 0.70608,0.3936 1.02768,0.6336 l 5.184,-6.912 C 32.4816,11.1552 31.6944,10.6704 30.8688,10.2576 z"
   id="path9"
   style="fill:#ffffff;stroke:none;stroke-width:0.47999999999999998;stroke-miterlimit:4;stroke-dasharray:none"
   inkscape:connector-curvature="0" />
</svg>